<?xml version="1.0" encoding="UTF-8" standalone="no"?>
<svg
   xmlns:dc="http://purl.org/dc/elements/1.1/"
   xmlns:cc="http://creativecommons.org/ns#"
   xmlns:rdf="http://www.w3.org/1999/02/22-rdf-syntax-ns#"
   xmlns:svg="http://www.w3.org/2000/svg"
   xmlns="http://www.w3.org/2000/svg"
   xmlns:xlink="http://www.w3.org/1999/xlink"
   xmlns:sodipodi="http://sodipodi.sourceforge.net/DTD/sodipodi-0.dtd"
   xmlns:inkscape="http://www.inkscape.org/namespaces/inkscape"
   inkscape:version="1.0 (4035a4fb49, 2020-05-01)"
   sodipodi:docname="logo-title-paths.svg"
   viewBox="-20 430 1431.5501 329.14048"
   version="1.1"
   width="1431.5555"
   height="329.13968"
   id="svg2">
  <sodipodi:namedview
     fit-margin-bottom="10"
     fit-margin-right="10"
     fit-margin-left="10"
     fit-margin-top="10"
     lock-margins="true"
     inkscape:bbox-nodes="true"
     inkscape:bbox-paths="true"
     inkscape:snap-bbox="false"
     inkscape:snap-grids="false"
     inkscape:snap-nodes="false"
     inkscape:current-layer="svg2"
     inkscape:window-maximized="1"
     inkscape:window-y="0"
     inkscape:window-x="1680"
     inkscape:cy="445.58847"
     inkscape:cx="662.43858"
     inkscape:zoom="0.38065915"
     inkscape:guide-bbox="true"
     showguides="false"
     showgrid="false"
     id="namedview110"
     inkscape:window-height="871"
     inkscape:window-width="1544"
     inkscape:pageshadow="2"
     inkscape:pageopacity="0"
     guidetolerance="10"
     gridtolerance="10"
     objecttolerance="10"
     borderopacity="1"
     bordercolor="#666666"
     pagecolor="#ffffff"
     inkscape:document-rotation="0">
    <sodipodi:guide
       id="guide112"
       orientation="0,-1"
       position="10.118865,11.500035" />
    <sodipodi:guide
       id="guide114"
       orientation="1,0"
       position="247.88886,65.370134" />
    <sodipodi:guide
       id="guide562"
       orientation="0,-1"
       position="89.065932,174.96792" />
    <sodipodi:guide
       id="guide564"
       orientation="0,-1"
       position="-57.682733,-227.20024" />
    <sodipodi:guide
       id="guide1418"
       orientation="1,0"
       position="11.047655,121.09783" />
    <sodipodi:guide
       id="guide1420"
       orientation="1,0"
       position="415.07088,135.95855" />
    <sodipodi:guide
       id="guide1426"
       orientation="1,0"
       position="214.45246,241.84115" />
    <sodipodi:guide
       id="guide162"
       orientation="0,-1"
       position="633.33631,266.91861" />
    <sodipodi:guide
       id="guide164"
       orientation="0,-1"
       position="666.77271,216.76369" />
  </sodipodi:namedview>
  <metadata
     id="metadata154">
    <rdf:RDF>
      <cc:Work
         rdf:about="">
        <dc:format>image/svg+xml</dc:format>
        <dc:type
           rdf:resource="http://purl.org/dc/dcmitype/StillImage" />
        <dc:title></dc:title>
      </cc:Work>
    </rdf:RDF>
  </metadata>
  <defs
     id="defs4">
    <linearGradient
       id="linearGradient170"
       inkscape:collect="always">
      <stop
         id="stop166"
         offset="0"
         style="stop-color:#ed2e25;stop-opacity:1" />
      <stop
         style="stop-color:#df1b12;stop-opacity:1"
         offset="0.49537688"
         id="stop999" />
      <stop
         id="stop168"
         offset="1"
         style="stop-color:#c91810;stop-opacity:1" />
    </linearGradient>
    <rect
       x="524.52002"
       y="434.04056"
       width="433.65533"
       height="308.96329"
       id="rect31" />
    <linearGradient
       id="linearGradient1930"
       inkscape:collect="always">
      <stop
         id="stop1926"
         offset="0"
         style="stop-color:#2d0604;stop-opacity:1" />
      <stop
         id="stop1928"
         offset="1"
         style="stop-color:#ac150e;stop-opacity:1" />
    </linearGradient>
    <linearGradient
       gradientTransform="translate(-50.252724,4.6365863)"
       gradientUnits="userSpaceOnUse"
       y2="574.36768"
       x2="244.70467"
       y1="667.01868"
       x1="244.70467"
       id="linearGradient1934"
       xlink:href="#linearGradient1930"
       inkscape:collect="always" />
    <linearGradient
       gradientUnits="userSpaceOnUse"
       y2="646.21665"
       x2="396.57164"
       y1="646.21667"
       x1="-6.5353751"
       id="linearGradient997"
       xlink:href="#linearGradient170"
       inkscape:collect="always" />
  </defs>
  <path
     sodipodi:nodetypes="cccc"
     id="path570-3"
     d="M -8.5028136,543.8532 194.55803,441.68136 395.07162,543.8532 Z"
     style="font-variation-settings:normal;vector-effect:none;fill:#ac150e;fill-opacity:1;fill-rule:evenodd;stroke:#7d0f0a;stroke-width:3.00001;stroke-linecap:butt;stroke-linejoin:miter;stroke-miterlimit:4;stroke-dasharray:none;stroke-dashoffset:0;stroke-opacity:1;stop-color:#000000" />
  <rect
     style="fill:url(#linearGradient1934);fill-opacity:1;stroke:#7d0f0a;stroke-width:3.00001;stroke-miterlimit:4;stroke-dasharray:none;stroke-opacity:1;stop-color:#000000"
     id="rect566"
     width="403.57443"
     height="201.78722"
     x="-8.5028238"
     y="545.85321" />
  <g
     transform="translate(-58.013484,-312.1962)"
     id="g5540">
    <g
       stroke="#000000"
       id="g1860">
      <path
         id="path4313"
         stroke-linejoin="round"
         d="m 299.42,884.37 c 1.0777,-27.779 3.2942,-47.152 7.9971,-59.349 21.906,-56.816 59.022,26.557 55.749,62.592 -20.015,-6.4495 -51.1,-6.0526 -63.746,-3.2429 z"
         stroke-width="2.0488"
         fill="#fce100" />
      <path
         id="path4311"
         stroke-linejoin="round"
         d="M 178.42,985.1 324.99,841.01 c 15.52,-15.58 3.3,-24.56 -10.38,-10.75 L 167.67,976.2 c -10.159,10.09 -1.1181,20.56 10.748,8.8948 z"
         stroke-width="2.0488"
         fill="#fce100" />
      <path
         id="path4315"
         d="m 262.82,901.7 c -7.9879,4.5309 -12.642,1.5019 -18.438,-1.7604 l -1.5751,2.409 9.7287,9.914 z"
         stroke-width="0.51219px" />
      <path
         id="path4317"
         d="m 227.15,917.73 c 6.9873,-3.6636 15.001,4.0989 9.5434,9.5434 l 6.1152,-5.9298 -9.8213,-9.5434 z"
         stroke-width="0.51219px" />
      <path
         id="path4326"
         stroke-linejoin="round"
         d="M 305.8,984.89 160.37,837.56 c -6.4659,-6.5507 0.45525,-20.91 10.542,-10.586 l 145.77,149.19 c 7.6662,7.8464 0.0994,19.855 -10.884,8.7278 z"
         stroke-width="2.0488"
         fill="#fce100" />
      <path
         id="path4343"
         d="m 194.47,806.72 c 1.0873,-1.0801 1.1923,-0.92003 2.1935,-0.20597 10.057,7.1728 21.191,9.4664 27.16,4.3998 1.9259,-1.6346 3.2688,-1.3429 4.8799,0.3347 l 11.762,12.247 -37.082,36.296 3.8,3.8 c -9.7218,-0.0171 -10.421,5.3822 -8.2551,13.234 l -6.6826,-6.4206 -27.648,27.386 c -0.78481,0.77737 -1.2057,1.1899 -2.4896,-0.13104 l -27.255,-28.041 c -1.8099,-1.8621 -1.333,-2.5263 0.17504,-3.9874 20.028,-19.405 39.652,-39.254 59.441,-58.912 z"
         stroke-width="0.51219px" />
    </g>
    <path
       id="path4345"
       d="m 138.13,869.36 c -1.4978,-1.5401 -0.88252,-1.6133 0,-2.4896 l 55.72,-55.331 c 0.51346,-0.71887 0.88334,-0.24798 1.4444,0.0875 10.827,6.3883 19.49,5.5677 27.638,3.0275 1.0323,-0.37985 1.2951,-0.57694 2.0809,0.18391 l 7.5906,7.3496 c 2.0854,2.0192 0.85173,2.9558 -0.13104,3.931 l -67.744,67.22 c -1.4028,1.3919 -2.1705,1.1403 -3.4068,-0.13104 z"
       stroke="#fce100"
       stroke-width="1.7927"
       fill="#fce100" />
  </g>
  <path
     d="m -8.5016236,545.85285 v 201.7876 H 395.07163 v -201.7876 l -200.5122,112.35964 z"
     style="fill:url(#linearGradient997);fill-opacity:1;stroke:#7d0f0a;stroke-width:3.00001;stroke-miterlimit:4;stroke-dasharray:none;stroke-opacity:1;stop-color:#000000"
     id="path1910" />
  <text
     transform="translate(-50.252724,4.6365863)"
     xml:space="preserve"
     id="text29"
     style="font-style:normal;font-variant:normal;font-weight:normal;font-stretch:normal;font-size:96.0002px;line-height:110%;font-family:'Abril Fatface';-inkscape-font-specification:'Abril Fatface, Normal';font-variant-ligatures:normal;font-variant-caps:normal;font-variant-numeric:normal;font-variant-east-asian:normal;text-align:center;letter-spacing:0px;word-spacing:0px;writing-mode:lr-tb;white-space:pre;shape-inside:url(#rect31);fill:#000000;fill-opacity:1;stroke:none;stroke-width:1px;stroke-linecap:butt;stroke-linejoin:miter;stroke-opacity:1;" />
  <g
     style="font-style:normal;font-variant:normal;font-weight:normal;font-stretch:normal;font-size:296.219px;line-height:110%;font-family:Amaranth;-inkscape-font-specification:'Amaranth, Normal';font-variant-ligatures:normal;font-variant-caps:normal;font-variant-numeric:normal;font-variant-east-asian:normal;text-align:center;letter-spacing:0px;word-spacing:0px;writing-mode:lr-tb;text-anchor:middle;fill:#000000;fill-opacity:1;stroke:none;stroke-width:3.08562px;stroke-linecap:butt;stroke-linejoin:miter;stroke-opacity:1"
     id="text160"
     aria-label="Musala">
    <path
       id="path1037"
       style="font-style:normal;font-variant:normal;font-weight:normal;font-stretch:normal;font-size:296.219px;font-family:Amaranth;-inkscape-font-specification:'Amaranth, Normal';font-variant-ligatures:normal;font-variant-caps:normal;font-variant-numeric:normal;font-variant-east-asian:normal;stroke-width:3.08562px"
       d="m 618.94792,745.76544 h -24.8824 l -33.47274,-76.12828 q -1.4811,-3.25841 -3.85085,-8.88657 -2.07353,-5.62816 -4.7395,-12.4412 -2.66598,-6.81303 -5.62817,-14.21851 -2.96219,-7.70169 -5.62816,-15.40339 0,7.7017 -0.29622,15.40339 0,7.40548 -0.29621,14.21851 -0.29622,6.51682 -0.59244,11.84876 0,5.03573 0,7.99792 l -2.96219,77.60937 h -33.17653 l 11.84876,-201.1327 h 27.54837 l 50.65344,125.59686 q 2.66598,6.81304 5.92438,14.81095 3.55463,7.99791 6.51682,15.6996 2.96219,-7.70169 6.2206,-15.40338 3.25841,-7.99792 6.2206,-15.10717 l 50.94967,-125.59686 h 26.95593 l 11.84876,201.1327 h -32.88031 l -3.25841,-76.72072 q -0.29622,-7.40547 -0.88866,-21.03155 -0.29622,-13.92229 -0.59244,-28.1408 -2.66597,7.40547 -5.62816,14.81095 -2.66597,7.40547 -5.03572,13.92229 -2.36975,6.51682 -4.44329,11.84876 -2.07353,5.33194 -3.2584,8.29413 z" />
    <path
       id="path1039"
       style="font-style:normal;font-variant:normal;font-weight:normal;font-stretch:normal;font-size:296.219px;font-family:Amaranth;-inkscape-font-specification:'Amaranth, Normal';font-variant-ligatures:normal;font-variant-caps:normal;font-variant-numeric:normal;font-variant-east-asian:normal;stroke-width:3.08562px"
       d="m 830.74362,598.24838 h 33.76897 v 76.12828 q 0,17.77314 2.07353,29.91812 2.36975,11.84876 5.03572,19.25424 3.25841,8.88657 7.10926,13.92229 l -26.36349,10.66388 q -3.55463,-3.25841 -6.51682,-8.29413 -2.36975,-4.14706 -5.03572,-10.07144 -2.36975,-6.2206 -3.25841,-14.51473 -7.99791,17.47692 -22.51264,24.88239 -14.51473,7.40548 -30.21434,7.40548 -23.4013,0 -33.47275,-13.62608 -9.77522,-13.62607 -9.77522,-37.32359 v -98.34471 h 33.76896 v 97.75227 q 0,12.4412 4.44329,19.55045 4.44328,7.10926 15.10716,7.10926 6.51682,0 12.73742,-3.55463 6.51682,-3.85084 11.55254,-10.66388 5.33194,-6.81304 8.29413,-16.29205 3.25841,-9.77522 3.25841,-21.62398 z" />
    <path
       id="path1041"
       style="font-style:normal;font-variant:normal;font-weight:normal;font-stretch:normal;font-size:296.219px;font-family:Amaranth;-inkscape-font-specification:'Amaranth, Normal';font-variant-ligatures:normal;font-variant-caps:normal;font-variant-numeric:normal;font-variant-east-asian:normal;stroke-width:3.08562px"
       d="m 949.23115,594.69375 q 8.59035,0 16.88449,1.77732 8.29413,1.77731 14.81095,4.14706 7.70169,2.66598 14.21851,5.62817 l -10.07145,23.10508 q -5.92438,-2.66597 -11.84876,-4.73951 -5.03572,-1.77731 -11.25632,-3.25841 -5.92438,-1.77731 -11.84876,-1.77731 -6.81304,0 -11.84876,3.25841 -4.7395,3.25841 -4.7395,9.77523 0,16.88448 24.58617,26.36349 9.18279,3.55462 16.58827,7.70169 7.40547,3.85085 12.44119,9.18279 5.33195,5.33194 7.99792,12.4412 2.66597,6.81303 2.66597,16.29204 0,8.29413 -3.55463,16.29205 -3.25841,7.99791 -10.07145,14.21851 -6.51681,6.2206 -16.29204,10.07144 -9.47901,3.55463 -21.62399,3.55463 -9.77522,0 -19.25423,-2.36975 -9.47901,-2.07353 -17.1807,-4.7395 -7.40548,-2.66597 -11.84876,-5.03573 l -4.44329,-2.07353 10.96011,-24.8824 3.85084,2.07354 q 3.85085,2.36975 9.77523,5.03572 5.92438,2.66597 12.73742,5.03572 6.81303,2.07354 12.44119,2.07354 10.36767,0 15.40339,-4.14707 5.03572,-4.14707 5.03572,-10.9601 0,-7.7017 -5.62816,-13.9223 -5.33194,-6.51681 -16.29204,-10.66388 -22.80886,-8.59035 -32.88031,-19.55045 -9.77523,-10.96011 -9.77523,-28.43703 0,-8.29413 3.85085,-15.6996 3.85085,-7.7017 10.36767,-13.32986 6.81303,-5.92438 15.99582,-9.18279 9.18279,-3.25841 19.84667,-3.25841 z" />
    <path
       id="path1043"
       style="font-style:normal;font-variant:normal;font-weight:normal;font-stretch:normal;font-size:296.219px;font-family:Amaranth;-inkscape-font-specification:'Amaranth, Normal';font-variant-ligatures:normal;font-variant-caps:normal;font-variant-numeric:normal;font-variant-east-asian:normal;stroke-width:3.08562px"
       d="m 1146.8088,674.37666 q 0,17.77314 2.0736,29.91812 2.3697,11.84876 5.0357,19.25424 3.2584,8.88657 7.1092,13.92229 l -26.3634,10.66388 q -3.8509,-3.85084 -7.1093,-9.18278 -2.666,-4.73951 -5.0357,-11.25633 -2.3698,-6.81303 -2.9622,-15.99582 -5.0357,17.77314 -16.2921,26.95593 -10.9601,8.88657 -29.9181,8.88657 -13.9223,0 -24.2899,-5.03573 -10.0715,-5.33194 -16.8845,-14.81095 -6.8131,-9.77522 -10.0715,-23.4013 -3.2584,-13.62607 -3.2584,-30.21433 0,-16.88449 5.0358,-31.103 5.3319,-14.51473 14.5147,-24.88239 9.479,-10.36767 22.5126,-16.29205 13.0337,-5.92438 28.7333,-5.92438 8.8865,0 18.3655,1.4811 9.7753,1.18487 18.0694,2.66597 8.2941,1.48109 13.9223,2.96219 5.9244,1.18487 6.813,1.48109 z m -67.8341,49.46858 q 7.4055,0 13.6261,-5.03573 6.2206,-5.03572 10.6638,-13.03363 4.7395,-8.29413 7.1093,-18.6618 2.666,-10.66388 2.666,-21.62399 v -42.65553 q -2.9622,-0.88866 -8.8866,-2.07353 -5.9244,-1.18488 -10.6639,-1.18488 -11.2563,0 -18.6618,3.85085 -7.1092,3.85084 -11.5525,10.66388 -4.4433,6.81304 -6.2206,16.29205 -1.7773,9.479 -1.7773,20.73533 0,10.36766 0.5924,19.84667 0.5924,9.47901 2.9622,16.88448 2.666,7.40548 7.4055,11.84876 4.7395,4.14707 12.7374,4.14707 z" />
    <path
       id="path1045"
       style="font-style:normal;font-variant:normal;font-weight:normal;font-stretch:normal;font-size:296.219px;font-family:Amaranth;-inkscape-font-specification:'Amaranth, Normal';font-variant-ligatures:normal;font-variant-caps:normal;font-variant-numeric:normal;font-variant-east-asian:normal;stroke-width:3.08562px"
       d="m 1217.9012,746.95032 q -16.8845,0 -24.8824,-9.18279 -7.9979,-9.47901 -7.9979,-23.99374 V 536.93105 l 33.769,-6.2206 v 179.80493 q 0,6.81304 2.6659,9.47901 2.666,2.66597 7.7017,2.66597 2.9622,0 5.6282,-0.29622 2.9622,-0.29622 5.3319,-0.88866 2.666,-0.59243 4.7395,-1.18487 l 4.1471,21.32777 q -3.8508,1.48109 -8.5903,2.66597 -4.1471,1.18487 -9.7753,1.77731 -5.6281,0.88866 -12.7374,0.88866 z" />
    <path
       id="path1047"
       style="font-style:normal;font-variant:normal;font-weight:normal;font-stretch:normal;font-size:296.219px;font-family:Amaranth;-inkscape-font-specification:'Amaranth, Normal';font-variant-ligatures:normal;font-variant-caps:normal;font-variant-numeric:normal;font-variant-east-asian:normal;stroke-width:3.08562px"
       d="m 1387.3376,674.37666 q 0,17.77314 2.0736,29.91812 2.3697,11.84876 5.0357,19.25424 3.2584,8.88657 7.1093,13.92229 l -26.3635,10.66388 q -3.8509,-3.85084 -7.1093,-9.18278 -2.666,-4.73951 -5.0357,-11.25633 -2.3698,-6.81303 -2.9622,-15.99582 -5.0357,17.77314 -16.292,26.95593 -10.9601,8.88657 -29.9182,8.88657 -13.9223,0 -24.2899,-5.03573 -10.0715,-5.33194 -16.8845,-14.81095 -6.813,-9.77522 -10.0715,-23.4013 -3.2584,-13.62607 -3.2584,-30.21433 0,-16.88449 5.0358,-31.103 5.3319,-14.51473 14.5147,-24.88239 9.479,-10.36767 22.5126,-16.29205 13.0337,-5.92438 28.7333,-5.92438 8.8865,0 18.3656,1.4811 9.7752,1.18487 18.0693,2.66597 8.2941,1.48109 13.9223,2.96219 5.9244,1.18487 6.813,1.48109 z m -67.8341,49.46858 q 7.4055,0 13.6261,-5.03573 6.2206,-5.03572 10.6639,-13.03363 4.7395,-8.29413 7.1092,-18.6618 2.666,-10.66388 2.666,-21.62399 v -42.65553 q -2.9622,-0.88866 -8.8866,-2.07353 -5.9244,-1.18488 -10.6639,-1.18488 -11.2563,0 -18.6618,3.85085 -7.1092,3.85084 -11.5525,10.66388 -4.4433,6.81304 -6.2206,16.29205 -1.7773,9.479 -1.7773,20.73533 0,10.36766 0.5924,19.84667 0.5925,9.47901 2.9622,16.88448 2.666,7.40548 7.4055,11.84876 4.7395,4.14707 12.7374,4.14707 z" />
  </g>
</svg>
